<?xml version="1.0" standalone="no"?>
<!DOCTYPE svg PUBLIC "-//W3C//DTD SVG 20010904//EN"
 "http://www.w3.org/TR/2001/REC-SVG-20010904/DTD/svg10.dtd">
<svg version="1.0" xmlns="http://www.w3.org/2000/svg"
 width="361.000000pt" height="361.000000pt" viewBox="0 0 361.000000 361.000000"
 preserveAspectRatio="xMidYMid meet">
<metadata>
Created by potrace 1.11, written by Peter Selinger 2001-2013
</metadata>
<g transform="translate(0.000000,361.000000) scale(0.100000,-0.100000)"
fill="#000000" stroke="none">
<path d="M1655 3158 c-66 -68 -199 -204 -297 -304 -98 -99 -178 -183 -178
-187 0 -4 46 -7 103 -7 l102 1 203 209 202 209 0 100 c0 56 -4 101 -8 101 -4
0 -62 -55 -127 -122z"/>
<path d="M1810 3180 l0 -103 158 -162 c88 -89 174 -181 192 -204 l33 -41 105
0 106 0 -85 87 c-46 49 -180 186 -296 306 l-213 219 0 -102z"/>
<path d="M1215 2465 l80 -74 446 -1 447 0 48 58 c26 31 54 65 62 75 14 16 -14
17 -574 17 l-589 0 80 -75z"/>
<path d="M1120 1909 l0 -602 68 64 67 64 5 465 c3 256 2 472 -2 481 -4 8 -36
41 -72 73 l-66 58 0 -603z"/>
<path d="M740 2222 c-124 -128 -258 -269 -298 -313 l-74 -79 109 0 109 0 192
200 193 199 -3 114 -3 113 -225 -234z"/>
<path d="M2650 2337 l1 -112 192 -198 192 -198 103 3 102 3 -172 180 c-94 99
-227 237 -295 307 l-123 127 0 -112z"/>
<path d="M2218 2145 c-156 -162 -284 -300 -286 -305 -2 -6 33 -10 91 -10 l95
0 196 203 196 202 0 103 c0 56 -2 102 -4 102 -3 0 -132 -133 -288 -295z"/>
<path d="M677 1504 l298 -306 3 103 3 103 -203 203 -203 203 -98 0 -99 0 299
-306z"/>
<path d="M2117 1603 c110 -115 243 -253 296 -308 l96 -100 1 108 0 109 -192
199 -192 199 -104 0 -104 0 199 -207z"/>
<path d="M2842 1616 l-192 -194 1 -109 0 -108 180 185 c99 102 230 238 291
303 l110 117 -99 0 -100 0 -191 -194z"/>
<path d="M1590 1488 c-102 -105 -234 -242 -293 -304 l-109 -114 99 0 98 1 203
210 202 211 0 94 c0 52 -3 94 -7 94 -5 -1 -91 -87 -193 -192z"/>
<path d="M1811 1580 l-1 -105 203 -203 202 -202 93 0 c50 0 92 4 92 8 0 4
-133 143 -294 307 l-295 300 0 -105z"/>
<path d="M1192 941 c6 -15 581 -611 590 -611 4 0 8 50 8 110 l0 110 -196 200
-197 200 -104 0 c-58 0 -103 -4 -101 -9z"/>
<path d="M2002 751 l-193 -200 3 -113 3 -113 290 302 c159 166 291 307 293
313 2 6 -33 10 -100 10 l-104 0 -192 -199z"/>
</g>
</svg>
